<svg width="48" height="32" viewBox="0 0 48 32" fill="none" xmlns="http://www.w3.org/2000/svg">
  <rect width="48" height="32" rx="4" fill="#FF6000"/>
  <ellipse cx="38" cy="16" rx="10" ry="16" fill="#FFAE00"/>
  <path d="M7 13H8.5C9.3 13 10 13.7 10 14.5V17.5C10 18.3 9.3 19 8.5 19H7V13ZM8.5 17.5V14.5H8.5V17.5H8.5ZM11 13H12.5V19H11V13ZM14 15.5C13.2 15.5 12.5 16.2 12.5 17C12.5 17.8 13.2 18.5 14 18.5C14.8 18.5 15.5 17.8 15.5 17C15.5 16.2 14.8 15.5 14 15.5ZM17 15.5C16.2 15.5 15.5 16.2 15.5 17C15.5 17.8 16.2 18.5 17 18.5C17.8 18.5 18.5 17.8 18.5 17C18.5 16.2 17.8 15.5 17 15.5ZM20 13H21.5V19H20V13ZM23 13H24.5V17.5H26V19H23V13Z" fill="white"/>
</svg>

