<svg width="48" height="32" viewBox="0 0 48 32" fill="none" xmlns="http://www.w3.org/2000/svg">
  <rect width="48" height="32" rx="4" fill="white"/>
  <rect x="1" y="1" width="46" height="30" rx="3" stroke="#E5E7EB" stroke-width="2"/>
  <path d="M12 13H14V19H12V13ZM18 15.5C17.2 15.5 16.5 16.2 16.5 17C16.5 17.8 17.2 18.5 18 18.5C18.8 18.5 19.5 17.8 19.5 17C19.5 16.2 18.8 15.5 18 15.5ZM24 13H26C26.8 13 27.5 13.7 27.5 14.5V17.5C27.5 18.3 26.8 19 26 19H24V13ZM26 17.5V14.5H26V17.5H26Z" fill="#0E4C96"/>
  <path d="M30 13H32C32.8 13 33.5 13.7 33.5 14.5V17.5C33.5 18.3 32.8 19 32 19H30V13ZM32 17.5V14.5H32V17.5H32Z" fill="#CC0000"/>
  <path d="M36 13H38C38.8 13 39.5 13.7 39.5 14.5V17.5C39.5 18.3 38.8 19 38 19H36V13ZM38 17.5V14.5H38V17.5H38Z" fill="#00A651"/>
</svg>

