<svg width="48" height="32" viewBox="0 0 48 32" fill="none" xmlns="http://www.w3.org/2000/svg">
  <rect width="48" height="32" rx="4" fill="#E21836"/>
  <path d="M8 13H10V17C10 17.8 10.7 18.5 11.5 18.5C12.3 18.5 13 17.8 13 17V13H15V17C15 18.9 13.4 20.5 11.5 20.5C9.6 20.5 8 18.9 8 17V13ZM17 13H19L22 18V13H24V20H22L19 15V20H17V13ZM26 13H28V20H26V13ZM30 15.5C29.2 15.5 28.5 16.2 28.5 17C28.5 17.8 29.2 18.5 30 18.5C30.8 18.5 31.5 17.8 31.5 17C31.5 16.2 30.8 15.5 30 15.5ZM34 13H36L39 18V13H41V20H39L36 15V20H34V13Z" fill="white"/>
  <path d="M6 22H42C42 22 41 24 38 24H10C7 24 6 22 6 22Z" fill="#00447C"/>
</svg>

