<svg width="48" height="32" viewBox="0 0 48 32" fill="none" xmlns="http://www.w3.org/2000/svg">
  <rect width="48" height="32" rx="4" fill="#1434CB"/>
  <path d="M20.5 11L18.2 21H16L18.3 11H20.5ZM27.8 17.5L29 13.5L29.7 17.5H27.8ZM31.2 21H33L31.3 11H29.5C29.1 11 28.8 11.2 28.6 11.5L25.5 21H27.7L28.1 19.8H30.8L31.2 21ZM24.5 17.8C24.5 15.9 21.5 15.8 21.5 14.9C21.5 14.6 21.8 14.3 22.4 14.2C22.7 14.2 23.5 14.1 24.4 14.6L24.8 12.7C24.2 12.5 23.5 12.3 22.6 12.3C20.5 12.3 19.1 13.4 19.1 15C19.1 16.2 20.2 16.9 21 17.3C21.9 17.7 22.2 17.9 22.2 18.3C22.2 18.8 21.6 19.1 21 19.1C19.9 19.1 19.3 18.9 18.5 18.5L18.1 20.5C18.9 20.8 20.4 21.1 21.9 21.1C24.2 21.1 25.5 20 24.5 17.8ZM15.5 11L12 21H9.8L8.1 13.8C8 13.4 7.9 13.2 7.6 13C7.1 12.7 6.2 12.4 5.5 12.2L5.6 11H9.5C10 11 10.4 11.3 10.5 11.9L11.5 17.5L14 11H15.5Z" fill="white"/>
</svg>

