<svg width="48" height="32" viewBox="0 0 48 32" fill="none" xmlns="http://www.w3.org/2000/svg">
  <rect width="48" height="32" rx="4" fill="#006FCF"/>
  <path d="M10 13L8.5 16.5L7 13H5V19H6.5V14.8L8 18H9L10.5 14.8V19H12V13H10ZM16 13H13V19H16V17.5H14.5V16.5H16V15H14.5V14.5H16V13ZM21 13L19.5 15.5L18 13H16V19H17.5V15.5L19 17.5L20.5 15.5V19H22V13H21ZM27 13H24V19H27V17.5H25.5V16.5H27V15H25.5V14.5H27V13ZM32 13L30.5 15.5L29 13H27V19H28.5V15.5L30 17.5L31.5 15.5V19H33V13H32ZM38 13H35V19H38V17.5H36.5V16.5H38V15H36.5V14.5H38V13Z" fill="white"/>
</svg>

